<svg version="1.1" id="Layer_1" xmlns="http://www.w3.org/2000/svg" xmlns:xlink="http://www.w3.org/1999/xlink" x="0px" y="0px"
	 width="100%" viewBox="0 0 736 528" enable-background="new 0 0 736 528" xml:space="preserve">
<path fill="#000000" opacity="1.000000" stroke="none" 
	d="
M129.000000,529.000000 
	C111.979103,529.000000 94.958214,529.000000 77.192413,528.782959 
	C75.201538,528.107666 73.965775,527.619080 72.708092,527.195679 
	C44.131313,517.574951 24.077446,498.949585 13.317318,470.666504 
	C7.939551,456.530975 9.056979,441.697723 10.041927,427.134583 
	C12.446420,391.582611 17.468832,356.317749 23.972795,321.299347 
	C34.042931,267.080170 50.141148,214.637161 71.888588,163.963333 
	C82.475487,139.294739 93.678864,114.870155 110.243240,93.483765 
	C127.854340,70.745918 148.421051,52.041592 178.142044,46.738270 
	C182.070190,46.037346 185.925888,44.939598 189.832672,44.108112 
	C216.141144,38.508873 242.554565,34.435661 269.598175,37.718925 
	C288.058533,39.960129 304.649963,45.703030 316.430817,61.167969 
	C321.945526,68.407257 325.755096,76.611099 328.599335,85.118553 
	C330.766663,91.601463 334.603394,93.669724 341.103851,93.943359 
	C358.928619,94.693665 376.716187,94.681046 394.549103,94.078461 
	C402.756775,93.801117 407.442596,91.461258 410.208252,83.116554 
	C415.330017,67.662895 423.469849,53.929192 438.658722,45.965824 
	C450.407532,39.806046 463.186035,37.556755 476.251495,36.971134 
	C501.041504,35.860001 525.440796,39.041763 549.610901,44.298401 
	C564.282837,47.489338 579.189697,50.508575 591.796204,59.076717 
	C615.002686,74.849258 632.045837,96.221848 645.319458,120.746323 
	C666.094910,159.130905 681.192932,199.839767 694.232422,241.341370 
	C706.333069,279.854736 714.447815,319.303589 720.156372,359.233368 
	C724.183044,387.398590 728.314453,415.567139 728.401489,444.134796 
	C728.497375,475.591492 713.601624,498.598572 688.419189,515.917297 
	C679.974426,521.725037 670.421692,525.229736 661.000000,529.000000 
	C643.979126,529.000000 626.958191,529.000000 609.170898,528.808105 
	C585.836243,521.571411 567.260559,508.486450 551.677124,490.948822 
	C546.478760,485.098572 541.383545,479.145599 536.472168,473.053345 
	C516.809509,448.662659 498.670502,423.112518 480.198975,397.837006 
	C469.880341,383.717590 456.958679,374.219879 440.633270,368.960236 
	C401.043335,356.205292 360.791565,355.672028 320.170685,362.774445 
	C313.439911,363.951294 306.917267,365.989990 300.322723,367.750214 
	C279.681519,373.259552 265.684967,386.802765 253.461044,403.674377 
	C234.315659,430.099091 215.408188,456.743530 194.425232,481.796997 
	C183.252335,495.137329 171.157043,507.449188 156.282990,516.761780 
	C147.744110,522.107910 138.235657,525.237122 129.000000,529.000000 
M598.052124,474.428986 
	C612.888855,485.285217 628.879517,491.489563 647.617737,486.885651 
	C671.244873,481.080597 685.464233,462.967194 684.721924,438.815094 
	C684.030457,416.320129 680.823303,394.058533 677.615051,371.811737 
	C673.741089,344.948608 669.147400,318.202423 662.824768,291.810822 
	C654.388794,256.597839 642.552979,222.458069 628.610229,189.067749 
	C618.848389,165.689926 608.401794,142.658829 593.983398,121.611244 
	C582.729675,105.183273 568.913635,92.755661 548.670837,88.973572 
	C541.800781,87.690002 535.007324,85.981590 528.122375,84.795212 
	C509.401459,81.569336 490.658417,78.658630 471.545563,81.273636 
	C463.219086,82.412857 456.711090,85.699692 453.266022,93.902290 
	C450.753052,99.885582 447.908997,105.736343 445.050079,111.566505 
	C437.879913,126.188454 427.063354,135.504532 410.006866,136.658661 
	C383.360504,138.461685 356.740448,138.052216 330.091614,136.954880 
	C310.263214,136.138367 298.388123,125.029770 290.918793,107.770226 
	C288.604645,102.422897 285.990265,97.205414 283.679047,91.856873 
	C281.750061,87.392853 278.480255,84.733940 273.876617,83.338676 
	C268.105560,81.589584 262.265778,80.370720 256.230225,80.244659 
	C231.006454,79.717789 206.574707,84.700363 182.374115,91.082588 
	C169.179428,94.562309 158.655182,102.181526 150.309753,112.896294 
	C144.155685,120.797569 138.499817,129.062317 133.718140,137.843765 
	C109.214684,182.843689 91.715881,230.618225 78.231087,279.912964 
	C69.872055,310.470093 64.602356,341.672668 60.161587,373.005615 
	C56.635029,397.888184 52.709129,422.746826 53.270802,448.013306 
	C53.330532,450.700195 53.548416,453.323059 54.499687,455.863953 
	C63.860973,480.868652 93.285347,494.471985 118.572899,485.755463 
	C135.089615,480.062225 147.828079,469.312775 158.725006,456.231598 
	C178.251953,432.790497 195.784866,407.813995 214.095184,383.434784 
	C222.973846,371.613312 230.724472,358.764526 242.545944,349.411682 
	C268.410675,328.948181 298.754730,320.272217 330.828918,316.757843 
	C350.545715,314.597473 370.365692,314.826111 390.216797,315.518616 
	C414.628662,316.370209 438.155884,320.853363 460.861481,329.733551 
	C481.931915,337.974243 499.836395,350.160400 513.183472,369.040192 
	C528.470520,390.664124 544.642639,411.667053 560.615479,432.799805 
	C571.756042,447.539093 582.457520,462.715485 598.052124,474.428986 
z"/>
<path fill="#000000" opacity="1.000000" stroke="none" 
	d="
M248.125641,268.206024 
	C247.832291,276.814209 247.627823,284.968903 247.227890,293.114044 
	C246.749939,302.848480 244.006989,305.964722 234.263962,306.668427 
	C220.803406,307.640686 207.296524,307.650818 193.841263,306.493011 
	C185.563583,305.780731 182.828018,303.315857 182.187958,295.010406 
	C181.511444,286.231964 181.597488,277.371063 181.810837,268.557343 
	C181.924271,263.871643 180.333328,261.810944 175.617798,261.784241 
	C168.127838,261.741791 160.639999,261.408508 153.150116,261.253113 
	C139.037186,260.960236 134.717682,256.641785 134.846603,242.355713 
	C134.945755,231.367615 135.263840,220.378296 135.685043,209.397217 
	C136.072128,199.305023 139.731796,195.932556 150.019989,195.658524 
	C158.507523,195.432465 166.993484,195.065918 175.482040,194.997070 
	C179.236755,194.966614 180.751480,193.489426 181.109009,189.729736 
	C181.900162,181.409988 181.474304,173.084564 181.715439,164.766083 
	C182.046860,153.333710 185.623840,149.278854 196.979218,148.976547 
	C209.448593,148.644577 221.958221,147.999252 234.401596,149.606674 
	C244.156067,150.866745 246.931793,153.965149 247.291321,163.950058 
	C247.602722,172.598495 247.942383,181.250916 247.968826,189.902496 
	C247.981857,194.168518 249.549988,195.863083 253.890228,195.750473 
	C262.211853,195.534561 270.544250,195.625900 278.870514,195.726181 
	C288.804565,195.845825 292.191864,198.363647 292.907135,208.000656 
	C293.917633,221.614609 293.825867,235.316269 292.935699,248.934601 
	C292.344360,257.980682 288.837402,260.644073 279.088318,261.137360 
	C270.609711,261.566406 262.117950,261.797394 253.629074,261.933289 
	C249.601364,261.997742 247.781158,263.745758 248.125641,268.206024 
M269.771545,225.599472 
	C269.728973,217.477066 269.728973,217.473145 261.846527,217.461777 
	C254.354935,217.450974 246.862808,217.505264 239.371902,217.430496 
	C229.016968,217.327148 224.763580,213.121658 224.657898,202.896454 
	C224.573593,194.739700 224.420898,186.577255 224.637787,178.426346 
	C224.755600,173.999176 223.396851,171.775848 218.673523,172.247467 
	C216.530838,172.461426 214.348709,172.277069 212.184479,172.279480 
	C204.040482,172.288589 204.059952,172.289703 203.987289,180.211243 
	C203.910965,188.530029 204.077423,196.846344 203.409241,205.162415 
	C202.711594,213.845383 199.742599,217.013870 190.937515,217.374176 
	C184.453003,217.639526 177.955231,217.925339 171.471497,217.795578 
	C155.908951,217.484116 158.507477,217.138306 158.308380,231.221390 
	C158.219055,237.540955 158.787476,238.016678 165.087662,238.112167 
	C174.071304,238.248337 183.072739,237.660751 192.034683,238.664780 
	C199.861115,239.541611 202.772797,242.740250 203.463120,250.446396 
	C204.297302,259.758575 203.908707,269.079681 203.942673,278.396301 
	C203.956589,282.215790 205.509399,283.883514 209.362411,283.669769 
	C212.682755,283.485596 216.026627,283.449585 219.347000,283.613464 
	C223.314713,283.809326 224.607452,281.940857 224.565109,278.194946 
	C224.469116,269.706238 224.577423,261.214539 224.661575,252.724640 
	C224.757187,243.079346 228.375229,239.088638 238.121048,238.493362 
	C244.758423,238.087921 251.429611,238.219406 258.086090,238.146469 
	C271.368805,238.000900 269.592804,240.112244 269.771545,225.599472 
z"/>
<path fill="#000000" opacity="1.000000" stroke="none" 
	d="
M488.860535,147.853851 
	C501.981995,135.538391 521.464722,136.981949 533.438965,145.510956 
	C545.122986,153.833282 549.425964,170.722855 544.789062,184.859879 
	C539.286072,201.637543 520.395508,208.557892 508.463165,207.230453 
	C494.131439,205.636108 481.192413,193.487549 478.762695,178.801956 
	C476.803711,166.961655 480.720398,156.860153 488.860535,147.853851 
M508.003448,183.612854 
	C508.953796,183.906006 509.885345,184.333740 510.857666,184.469772 
	C515.911682,185.176895 520.985962,182.518784 522.800537,178.291046 
	C524.929993,173.329590 523.776184,166.822556 520.273376,164.039032 
	C515.638550,160.355927 510.864258,160.115311 506.094055,163.324493 
	C498.434845,168.477310 498.982361,177.460068 508.003448,183.612854 
z"/>
<path fill="#000000" opacity="1.000000" stroke="none" 
	d="
M531.552490,311.699646 
	C518.018066,319.743225 504.735260,319.432861 492.312897,310.717926 
	C480.317566,302.302582 476.691589,289.745941 479.254517,275.853363 
	C481.953186,261.225128 491.849396,252.833145 505.985870,249.467361 
	C519.950806,246.142456 536.088318,254.281052 543.129761,267.807892 
	C549.970276,280.948547 546.984253,298.282440 536.152710,308.084503 
	C534.800659,309.308044 533.290894,310.357269 531.552490,311.699646 
M506.016083,292.615234 
	C512.073059,295.672211 516.746094,295.503387 520.296631,292.099243 
	C523.594971,288.936890 524.726440,283.101685 522.903076,278.699860 
	C521.053467,274.234650 517.472778,272.018250 512.892456,271.623230 
	C508.557739,271.249359 503.414154,274.962982 501.642639,279.345673 
	C499.522888,284.589905 501.509613,288.683044 506.016083,292.615234 
z"/>
<path fill="#000000" opacity="1.000000" stroke="none" 
	d="
M424.430786,211.629700 
	C433.924591,195.402725 446.791412,192.365875 465.105652,195.514786 
	C478.145996,197.756912 488.346008,210.820435 488.872162,225.908585 
	C489.529114,244.746811 476.566284,261.200226 456.672455,262.174927 
	C437.210815,263.128387 421.063019,248.266388 420.619720,229.352127 
	C420.476166,223.226227 421.450623,217.426834 424.430786,211.629700 
M443.351227,229.130890 
	C445.221497,237.044327 451.536346,241.284775 458.142609,239.063431 
	C463.684631,237.199921 467.195618,231.619690 466.163513,226.315231 
	C464.989655,220.282227 459.602936,216.046768 453.636139,216.465256 
	C447.600861,216.888550 443.856903,221.194061 443.351227,229.130890 
z"/>
<path fill="#000000" opacity="1.000000" stroke="none" 
	d="
M598.892883,242.643036 
	C588.235840,263.620941 564.169250,267.452057 547.667053,255.739395 
	C535.701904,247.246979 530.729980,231.987167 535.371216,217.585846 
	C539.980164,203.284286 551.990479,195.517593 566.817688,194.357895 
	C591.471924,192.429611 610.114807,220.040314 598.892883,242.643036 
M567.534912,216.387085 
	C565.807983,216.375854 564.288391,217.035858 562.812683,217.841721 
	C557.760986,220.600449 555.359924,225.523163 556.509705,230.768356 
	C557.624451,235.853851 561.995422,239.457977 567.243958,239.619370 
	C572.835754,239.791306 577.626404,236.289154 579.233765,230.854294 
	C581.117737,224.484039 576.737793,218.696487 567.534912,216.387085 
z"/>
</svg>